<?xml version="1.0" standalone="no"?>
<!DOCTYPE svg PUBLIC "-//W3C//DTD SVG 20010904//EN"
 "http://www.w3.org/TR/2001/REC-SVG-20010904/DTD/svg10.dtd">
<svg version="1.0" xmlns="http://www.w3.org/2000/svg"
 width="2400.000000pt" height="1000.000000pt" viewBox="0 0 2400.000000 1000.000000"
 preserveAspectRatio="xMidYMid meet">

<g transform="translate(0.000000,1000.000000) scale(0.100000,-0.100000)"
fill="#000000" stroke="none">
<path d="M12805 8289 c-77 -43 -144 -78 -150 -79 -5 -1 -306 -353 -667 -783
-361 -430 -719 -857 -796 -948 l-140 -166 89 -134 c65 -97 86 -136 77 -142
-113 -67 -202 -119 -212 -123 -7 -3 -168 263 -426 705 -228 391 -418 710 -421
711 -4 0 -80 -39 -170 -87 -122 -64 -196 -111 -288 -185 -68 -54 -125 -97
-127 -96 -1 2 20 101 47 222 28 120 49 220 47 221 -2 1 -418 -4 -926 -12
l-922 -15 -162 -87 -162 -86 -131 -490 -132 -490 177 -3 177 -2 -17 -83 c-12
-59 -20 -82 -31 -80 -8 0 -57 19 -109 41 -192 79 -342 106 -590 106 -151 -1
-234 -8 -326 -30 -22 -6 -22 -4 -21 153 1 179 -18 288 -79 472 -109 328 -381
700 -652 891 -112 79 -373 230 -456 264 -301 123 -371 147 -563 190 -340 76
-542 102 -918 117 -357 14 -575 0 -1065 -72 -391 -56 -778 -184 -1162 -383
l-166 -87 38 -142 c109 -410 423 -1582 426 -1585 1 -2 93 13 204 33 112 19
205 34 207 31 4 -3 418 -2685 589 -3814 l28 -183 120 6 c67 3 403 15 748 26
l628 20 149 79 c82 44 156 80 164 80 20 0 27 217 27 824 0 270 3 529 7 575 l6
83 27 -73 c165 -450 534 -758 1029 -859 320 -65 703 -14 1019 135 l93 44 -7
-37 c-3 -20 -7 -41 -8 -46 0 -5 301 -55 670 -110 l672 -102 153 83 c85 46 159
83 165 83 7 0 55 153 109 345 54 190 101 345 104 345 4 0 434 -396 956 -881
523 -484 955 -883 962 -886 7 -3 79 31 160 75 81 43 155 81 163 84 10 4 57
153 144 462 72 251 131 456 132 456 1 0 54 -11 117 -25 199 -43 346 -58 572
-59 279 0 496 29 749 103 l98 29 -6 -97 c-4 -53 -9 -116 -12 -141 l-5 -45 823
-68 823 -69 153 81 c84 45 155 81 157 81 2 0 54 -88 117 -195 l113 -194 124
65 c75 40 126 62 130 56 4 -6 22 -73 40 -149 18 -76 37 -142 41 -146 4 -4 393
-30 865 -57 l858 -48 150 79 c82 43 156 79 164 79 10 0 13 6 9 17 -12 30 -157
615 -154 619 2 1 53 8 113 14 241 24 415 76 645 192 85 43 191 95 235 114 44
20 115 55 158 79 62 35 77 41 77 27 1 -37 76 -631 80 -635 3 -3 255 10 560 29
305 18 580 33 610 34 l55 0 60 -243 60 -242 660 -47 660 -46 167 86 c130 68
168 91 168 107 1 11 126 1192 279 2625 153 1433 276 2607 274 2610 -7 7 -1757
20 -1763 12 -7 -9 -282 -147 -294 -147 -4 0 -25 37 -45 83 -21 45 -40 84 -42
86 -2 2 -449 0 -993 -5 -814 -8 -991 -12 -1000 -23 -6 -7 -78 -48 -161 -91
-127 -65 -150 -81 -148 -99 4 -37 143 -1000 148 -1023 5 -23 8 -23 150 -23
119 0 145 -3 145 -14 0 -8 2 -20 5 -28 4 -10 -30 -13 -177 -14 -158 -1 -201
-5 -313 -28 -235 -50 -282 -69 -730 -300 -93 -48 -215 -118 -271 -155 l-100
-67 -199 788 c-109 434 -201 790 -204 792 -3 2 -285 -27 -626 -63 l-620 -66
-95 -52 c-52 -29 -125 -67 -162 -85 -52 -26 -67 -38 -67 -55 -1 -15 -9 -24
-23 -27 -13 -3 -169 -19 -348 -36 -179 -17 -343 -33 -365 -35 -34 -5 -22 4 78
55 76 39 117 66 114 74 -3 7 -227 316 -498 687 -270 371 -501 689 -513 706
-12 18 -25 32 -31 32 -5 -1 -73 -36 -150 -80z m-8945 -394 c228 -6 374 -21
585 -60 277 -51 389 -79 510 -130 44 -19 117 -47 162 -64 97 -35 349 -179 467
-268 194 -145 408 -445 489 -683 14 -41 36 -124 48 -185 21 -104 22 -118 10
-258 -17 -217 -10 -200 -105 -248 -398 -203 -733 -581 -901 -1019 l-33 -85
-83 -43 c-109 -57 -325 -148 -464 -197 -60 -21 -115 -42 -121 -47 -8 -5 -13
-299 -18 -995 -4 -543 -8 -989 -9 -989 -3 -3 -558 -24 -702 -27 l-139 -2 -309
2015 c-170 1108 -312 2018 -316 2022 -3 4 -105 -10 -226 -32 -121 -21 -221
-37 -222 -36 -4 3 -293 1085 -293 1096 0 37 350 130 658 175 317 47 645 76
757 69 22 -2 137 -6 255 -9z m9345 -468 c135 -186 248 -344 251 -352 4 -9
-207 -120 -758 -397 -419 -211 -768 -384 -774 -386 -6 -2 -35 33 -64 78 -48
72 -51 82 -38 98 8 9 190 226 403 482 679 811 706 843 720 828 7 -7 124 -165
260 -351z m6878 -1039 c195 -431 397 -876 448 -990 l94 -208 7 113 c4 61 17
499 29 972 11 473 24 863 28 867 3 4 235 4 514 1 l508 -6 -6 -41 c-7 -49 -475
-4453 -475 -4469 0 -11 -79 -8 -482 20 l-247 17 -74 305 c-41 168 -180 739
-308 1268 -129 529 -235 958 -237 953 -2 -5 13 -460 33 -1010 20 -551 34
-1004 31 -1008 -4 -3 -61 -9 -129 -14 -435 -28 -630 -39 -632 -36 -2 2 -23
169 -48 372 l-45 370 48 90 c270 511 290 1064 55 1514 -73 139 -152 248 -261
356 l-90 91 -48 395 c-26 217 -50 414 -53 438 l-6 42 -148 0 c-146 0 -149 0
-154 23 -6 29 -45 313 -45 332 0 13 68 15 543 18 298 1 599 3 668 5 l127 2
355 -782z m-10868 625 c-3 -16 -59 -263 -124 -550 -64 -288 -116 -523 -114
-523 1 0 137 107 300 237 499 397 774 613 781 613 4 0 127 -206 274 -458 l267
-456 -107 -63 c-662 -386 -1257 -741 -1256 -748 0 -6 256 -206 568 -445 l568
-435 33 -92 c41 -115 118 -262 192 -367 76 -106 265 -295 376 -375 48 -35 86
-69 83 -76 -2 -6 -45 -157 -96 -336 -50 -178 -93 -325 -95 -328 -2 -2 -53 42
-112 96 -59 55 -541 502 -1071 993 -530 490 -965 890 -967 888 -2 -2 -87 -298
-189 -657 -103 -360 -188 -656 -190 -658 -3 -3 -336 43 -616 86 l-45 7 3 43
c2 38 11 53 68 115 197 214 345 467 439 749 127 382 106 829 -54 1146 -17 33
-31 71 -31 83 0 13 54 293 120 623 66 330 120 605 120 612 0 10 -33 12 -160 6
-92 -3 -160 -2 -160 3 0 13 72 268 77 274 4 5 442 14 901 18 l224 2 -7 -27z
m6845 -1023 c209 -827 216 -856 202 -890 -134 -328 -170 -500 -159 -780 18
-474 236 -883 600 -1129 65 -44 76 -55 86 -93 6 -24 38 -151 71 -283 34 -132
63 -248 66 -259 6 -17 0 -18 -122 -11 -493 25 -850 47 -855 53 -3 4 -48 174
-98 377 -210 845 -335 1326 -341 1313 -4 -7 -67 -218 -139 -468 -73 -250 -135
-463 -137 -473 -7 -21 -28 15 -421 691 -136 232 -249 419 -253 415 -4 -4 -24
-296 -44 -648 -20 -352 -40 -666 -43 -699 l-6 -58 -96 7 c-53 3 -257 19 -454
36 -197 16 -365 29 -372 29 -11 0 -13 11 -8 53 3 28 11 55 17 59 6 4 53 24
104 45 50 20 92 40 92 44 0 5 -40 88 -88 186 l-88 178 32 449 c18 246 34 450
36 451 2 2 65 33 140 69 l137 64 -64 185 c-66 191 -101 279 -141 358 l-23 47
40 563 c23 310 45 568 49 573 8 8 908 101 914 95 3 -3 167 -560 359 -1219 8
-28 23 112 74 710 35 409 65 746 67 747 4 4 618 71 635 69 11 -1 74 -236 231
-856z m-2954 423 c-3 -32 -10 -128 -16 -213 -6 -85 -13 -178 -16 -207 l-5 -51
-142 68 c-123 59 -298 124 -389 146 -16 3 -28 9 -28 13 0 6 578 299 593 300 5
1 6 -25 3 -56z m-801 -579 c121 -19 330 -86 458 -148 279 -134 498 -348 632
-618 90 -182 182 -113 -697 -531 -417 -198 -758 -364 -758 -367 0 -4 42 -23
93 -43 186 -71 370 -81 572 -31 33 8 111 40 173 70 62 31 115 55 116 53 2 -2
83 -163 181 -358 99 -199 173 -357 168 -362 -16 -16 -227 -89 -345 -119 -209
-52 -319 -65 -573 -64 -191 0 -252 4 -359 22 -241 42 -393 90 -586 187 -310
156 -542 411 -639 700 -61 182 -74 334 -46 535 50 355 226 646 519 855 275
196 694 280 1091 219z m-5298 5 c380 -42 674 -268 823 -632 58 -138 74 -234
74 -417 0 -241 -44 -413 -166 -653 -158 -311 -367 -516 -687 -676 -458 -230
-968 -194 -1323 93 -138 112 -262 317 -318 526 -25 92 -32 143 -37 256 -7 170
5 268 54 419 140 439 440 781 847 964 248 112 474 149 733 120z m11090 0 c380
-42 674 -268 823 -632 131 -316 98 -697 -90 -1067 -81 -158 -164 -274 -280
-390 -221 -221 -537 -383 -830 -426 -334 -48 -660 34 -902 230 -138 112 -262
317 -318 526 -38 140 -50 344 -31 481 27 182 130 435 250 615 160 238 379 423
645 543 248 112 474 149 733 120z m-7926 -704 c-26 -52 -61 -132 -76 -178
l-29 -85 -99 75 c-68 52 -96 78 -89 85 13 13 324 198 334 198 3 0 -15 -43 -41
-95z"/>
<path d="M4465 6584 c-22 -2 -55 -7 -74 -10 l-34 -5 6 -242 c4 -133 11 -386
17 -562 5 -176 12 -403 14 -504 3 -101 6 -184 8 -186 7 -7 152 35 248 73 258
102 479 272 587 453 27 46 55 98 61 114 23 57 42 170 42 245 0 288 -159 488
-473 596 -61 21 -94 26 -217 29 -80 2 -163 1 -185 -1z m171 -460 c126 -84 174
-180 174 -343 -1 -133 -51 -248 -155 -354 l-50 -51 -6 149 c-14 317 -19 625
-10 625 4 0 26 -12 47 -26z"/>
<path d="M11920 5355 c-154 -34 -283 -104 -365 -198 -193 -218 -230 -487 -104
-739 22 -43 41 -78 44 -78 6 0 1149 591 1157 599 12 11 -86 163 -147 226 -155
160 -384 235 -585 190z m-47 -385 c51 -19 167 -95 167 -109 0 -3 -99 -57 -220
-119 -177 -91 -221 -110 -226 -98 -3 9 -4 51 -2 93 4 84 33 164 85 231 25 34
27 34 83 29 32 -4 83 -16 113 -27z"/>
<path d="M6610 5554 c-182 -39 -340 -169 -428 -352 -31 -65 -36 -86 -40 -174
-6 -123 7 -186 60 -297 54 -113 160 -222 268 -275 142 -69 339 -84 495 -36
181 56 301 153 377 307 83 164 88 334 16 494 l-33 74 -7 -81 c-8 -105 -37
-171 -98 -228 -202 -189 -535 -135 -646 106 -23 52 -29 77 -29 138 0 101 34
174 108 230 58 43 151 90 182 90 17 0 17 2 5 10 -22 14 -154 11 -230 -6z"/>
<path d="M17705 5555 c-188 -41 -344 -168 -433 -354 -32 -67 -36 -84 -40 -180
-7 -185 45 -318 178 -452 94 -95 185 -143 315 -166 301 -52 584 77 707 324 83
164 88 334 16 494 l-33 74 -7 -81 c-8 -105 -37 -171 -98 -228 -202 -189 -535
-135 -646 106 -23 52 -29 77 -29 138 0 101 34 174 108 230 58 43 151 90 182
90 17 0 17 2 5 10 -21 14 -154 11 -225 -5z"/>
</g>
</svg>
